<svg width="180" height="168" viewBox="0 0 180 168" fill="none" xmlns="http://www.w3.org/2000/svg">
<path d="M177.338 51.3326C173.462 31.0491 148.479 35.7077 147.119 34.4297C145.263 32.6982 148.273 6.64299 126.629 1.77826C115.25 -0.736557 73.0757 -0.241839 60.3779 1.15986C15.276 6.27196 37.3322 53.3114 31.4781 58.877C30.2 60.0726 6.41232 57.1043 1.71249 73.1826C-0.678647 81.3867 -0.225155 131.848 1.01164 142.484C2.86684 158.81 11.4832 163.469 26.9019 165.2C55.1009 168.375 116.817 167.839 145.552 165.324C162.001 163.881 175.276 160.83 177.42 142.484C179.234 126.736 179.976 65.5145 177.296 51.3738L177.338 51.3326ZM31.4781 146.937C25.7888 147.102 18.7803 148.297 16.719 141.949C14.5752 135.311 15.3585 83.1595 19.0689 78.336C22.2845 74.1721 26.5721 73.5125 31.4781 74.0484V146.937ZM98.3888 146.937H80.1254C77.6106 115.852 101.604 116.306 98.3888 146.937ZM128.773 146.937H113.56C122.3 93.5898 56.2552 93.5486 64.954 146.937H49.7414V23.9581C49.7414 23.6283 53.9878 19.4232 54.3176 19.4232H124.238C124.568 19.4232 128.814 23.6696 128.814 23.9581V146.937H128.773ZM161.754 141.949C159.693 148.297 152.643 147.102 146.995 146.937V49.766C156.436 50.4256 161.218 53.8474 162.372 63.247C163.527 72.7704 163.774 135.765 161.754 141.949Z" fill="#485AA3"/>
<path d="M113.147 77.5127C125.886 98.126 66.7262 94.5393 64.8298 87.3247C59.1818 66.0518 111.21 74.3795 113.147 77.5127Z" fill="#5262A8"/>
<path d="M69.9838 44.2016C77.4046 41.8929 118.178 39.543 113.519 54.3021C111.499 60.7334 76.0441 60.2799 69.9838 58.3835C62.8104 56.1573 62.8104 46.4278 69.9838 44.2016Z" fill="#485AA4"/>
</svg>