<svg width="134" height="87" viewBox="0 0 134 87" fill="none" xmlns="http://www.w3.org/2000/svg">
<path d="M48.4302 84.4087C48.1807 84.7206 41.7862 86.4986 40.7568 86.3115C37.8559 85.8124 0.362177 47.5701 0.0502497 44.17C-0.261678 40.77 0.923647 39.7095 2.35851 37.2764C4.79155 33.0966 39.977 -0.217281 42.722 0.00106853C44.2504 0.12584 47.744 4.02494 48.1807 5.70935C50.4266 14.1002 15.3035 37.8379 16.3953 43.9829C20.6063 50.9701 54.1385 76.7041 48.3991 84.4399L48.4302 84.4087Z" fill="#4A5BA4"/>
<path d="M85.2997 1.91652C85.5492 1.6046 91.9437 -0.173393 92.9731 0.0137641C95.874 0.544041 133.337 38.7864 133.68 42.1552C134.023 45.524 132.806 46.6158 131.371 49.0488C128.907 53.1974 93.7217 86.5425 90.9768 86.3242C89.4483 86.1994 85.9547 82.3003 85.518 80.6159C83.2722 72.225 118.395 48.4873 117.303 42.3424C113.092 35.3552 79.5602 9.62114 85.2997 1.88533V1.91652Z" fill="#4A5BA4"/>
</svg>