<svg width="133" height="122" viewBox="0 0 133 122" fill="none" xmlns="http://www.w3.org/2000/svg">
<g clip-path="url(#clip0_187_49)">
<path d="M96.0316 119.358C95.8773 119.604 90.7856 121.324 90.5079 121.293C79.9852 120.126 91.2794 94.1959 75.2021 87.3755C66.6543 83.7502 24.0696 83.7809 17.8979 90.3248C8.60952 100.156 16.6944 124.704 4.3202 121.754C-3.64129 119.849 0.308595 88.7273 8.60952 81.108C22.3724 68.4195 75.3872 67.6822 88.3787 81.0466C95.1058 87.9899 100.167 112.783 96.0316 119.358Z" fill="#495AA4"/>
<path d="M84.9534 49.5557C85.8791 48.2347 100.228 46.1148 102.666 34.2251C106.678 14.8083 75.3564 11.0294 87.0518 3.01079C110.381 -12.9343 132.198 56.4376 91.8348 59.8171C86.8049 60.2473 82.9785 52.3822 84.9534 49.5865V49.5557Z" fill="#4A5BA4"/>
<path d="M132.445 119.358C130.84 121.908 124.329 121.6 122.477 117.33C118.651 108.605 125.1 98.7735 115.688 90.1404C112.664 87.3753 95.723 82.0296 105.32 75.4242C116.151 67.9586 130.963 85.6549 132.537 96.0084C133.062 99.3572 133.309 118.006 132.475 119.358H132.445Z" fill="#4A5BA4"/>
<path d="M45.7322 0.153634C6.17164 3.53314 11.3867 66.8834 54.0023 60.6467C89.4895 55.4546 84.9533 -3.22587 45.7322 0.153634ZM51.3484 49.095C31.1053 52.7202 22.2489 19.2939 40.98 13.7024C70.4807 4.94638 74.3071 44.9474 51.3484 49.095Z" fill="#485AA4"/>
</g>
<defs>
<clipPath id="clip0_187_49">
<rect width="133" height="122" fill="white"/>
</clipPath>
</defs>
</svg>