<svg width="207" height="207" viewBox="0 0 207 207" fill="none" xmlns="http://www.w3.org/2000/svg">
<path d="M205.891 112.616C203.35 96.8549 200.761 93.4433 198.939 73.8865C196.446 47.5064 182.351 45.1519 170.701 31.0729C164.613 23.673 159.819 5.41358 147.114 1.61754C124.15 -5.20572 105.692 11.8044 102.336 11.1797C98.9324 10.5551 95.7203 3.20323 90.5426 1.56949C84.0705 -0.448658 70.503 0.0318534 63.6952 1.61754C45.2856 5.89409 44.5665 21.8471 36.5123 31.0249C28.7457 39.8663 20.26 39.1455 13.4523 53.9453C4.63098 73.0216 13.1646 79.6526 11.0552 90.32C10.0963 95.1732 2.90507 99.738 1.32299 108.964C-3.9506 139.62 7.55542 141.879 17.9588 162.733C21.9859 170.806 22.2256 179.647 27.7869 188.248C39.5805 206.412 59.5723 209.583 79.8516 205.306C88.7208 203.432 98.2613 193.149 102.48 192.525C109.192 191.468 126.067 214.34 159.195 203.432C185.324 194.831 181.872 178.109 190.405 160.379C199.083 142.455 210.733 142.84 205.843 112.568L205.891 112.616ZM40.012 172.584C84.2143 152.402 26.6362 153.555 20.2121 131.98C13.4523 109.204 35.7931 101.276 36.6561 90.9927C37.4711 81.0461 19.397 68.0242 38.2382 54.0414C45.1418 51.4466 42.7447 61.0568 45.5733 61.3932C47.7306 61.6334 60.6749 58.1257 61.1543 57.501C62.6885 55.4348 49.0251 33.2352 66.2362 21.9912C98.3571 0.992878 99.1242 77.2501 87.6182 92.9148C83.3993 98.6328 56.1204 111.799 68.3456 121.217C72.0371 124.1 87.1388 116.556 92.9877 117.757C98.7886 159.706 88.577 216.598 40.012 172.584ZM177.701 144.137C171.277 149.615 134.697 155.573 156.606 169.364C160.298 171.671 174.537 161.532 163.75 176.187C148.121 197.426 114.178 183.251 114.178 169.028V117.709C115.137 116.556 139.204 127.656 142.32 115.691C145.34 104.111 125.396 100.843 119.547 92.8667C107.274 76.0968 109.528 -2.2746 142.368 24.0094C156.702 35.4936 143.279 46.209 149.559 61.0568C161.88 62.9789 165.667 47.0259 173.865 59.6633C186.426 79.076 170.893 83.1123 170.605 84.5058C167.537 100.026 206.849 119.199 177.653 144.089L177.701 144.137Z" fill="#485AA3"/>
</svg>