<svg width="120" height="187" viewBox="0 0 120 187" fill="none" xmlns="http://www.w3.org/2000/svg">
<g clip-path="url(#clip0_187_40)">
<path d="M119.266 67.377C130.41 -12.0969 8.33683 -27.0552 0.259076 53.8062C-2.63509 82.9423 19.3088 95.5159 20.5615 103.797C22.9805 119.579 -1.59838 175.337 15.5075 183.921C31.9653 192.203 49.4167 162.59 61.1662 163.717C72.4837 164.801 91.4902 194.978 107.387 184.962C119.266 177.461 96.5442 116.978 99.0496 104.361C100.043 99.288 116.587 86.2808 119.266 67.377ZM28.2936 163.067L37.9265 115.2C53.8228 119.969 66.7386 117.238 82.5485 116.457L91.9221 163.023C67.1273 139.35 53.3044 140.044 28.2936 163.023V163.067ZM64.0172 101.803C11.6198 107.873 1.55497 26.7946 49.6759 16.9091C109.287 4.639 122.592 95.0389 64.0172 101.803Z" fill="#485AA3"/>
</g>
<defs>
<clipPath id="clip0_187_40">
<rect width="120" height="187" fill="white"/>
</clipPath>
</defs>
</svg>