<svg width="376" height="321" viewBox="0 0 376 321" fill="none" xmlns="http://www.w3.org/2000/svg">
<rect width="376" height="321" fill="white"/>
<g clip-path="url(#clip0_187_14)">
<path d="M247.266 125.377C258.41 45.9031 136.337 30.9448 128.259 111.806C125.365 140.942 147.309 153.516 148.561 161.797C150.98 177.579 126.402 233.337 143.507 241.921C159.965 250.203 177.417 220.59 189.166 221.717C200.484 222.801 219.49 252.978 235.387 242.962C247.266 235.461 224.544 174.978 227.05 162.361C228.043 157.288 244.587 144.281 247.266 125.377ZM156.294 221.067L165.926 173.2C181.823 177.969 194.739 175.238 210.548 174.457L219.922 221.023C195.127 197.35 181.304 198.044 156.294 221.023V221.067ZM192.017 159.803C139.62 165.873 129.555 84.7946 177.676 74.9091C237.287 62.639 250.592 153.039 192.017 159.803Z" fill="#485AA3"/>
</g>
<defs>
<clipPath id="clip0_187_14">
<rect width="120" height="187" fill="white" transform="translate(128 58)"/>
</clipPath>
</defs>
</svg>
