<svg width="376" height="321" viewBox="0 0 376 321" fill="none" xmlns="http://www.w3.org/2000/svg">
<rect width="376" height="321" fill="white"/>
<path d="M289.891 169.616C287.35 153.855 284.761 150.443 282.939 130.886C280.446 104.506 266.351 102.152 254.701 88.0729C248.613 80.673 243.819 62.4136 231.114 58.6175C208.15 51.7943 189.692 68.8044 186.336 68.1797C182.932 67.5551 179.72 60.2032 174.543 58.5695C168.07 56.5513 154.503 57.0319 147.695 58.6175C129.286 62.8941 128.566 78.8471 120.512 88.0249C112.746 96.8663 104.26 96.1455 97.4523 110.945C88.631 130.022 97.1646 136.653 95.0552 147.32C94.0963 152.173 86.9051 156.738 85.323 165.964C80.0494 196.62 91.5554 198.879 101.959 219.733C105.986 227.806 106.226 236.647 111.787 245.248C123.581 263.412 143.572 266.583 163.852 262.306C172.721 260.432 182.261 250.149 186.48 249.525C193.192 248.468 210.067 271.34 243.195 260.432C269.324 251.831 265.872 235.109 274.405 217.379C283.083 199.455 294.733 199.84 289.843 169.568L289.891 169.616ZM124.012 229.584C168.214 209.402 110.636 210.555 104.212 188.98C97.4523 166.204 119.793 158.276 120.656 147.993C121.471 138.046 103.397 125.024 122.238 111.041C129.142 108.447 126.745 118.057 129.573 118.393C131.731 118.633 144.675 115.126 145.154 114.501C146.688 112.435 133.025 90.2352 150.236 78.9912C182.357 57.9929 183.124 134.25 171.618 149.915C167.399 155.633 140.12 168.799 152.346 178.217C156.037 181.1 171.139 173.556 176.988 174.757C182.789 216.706 172.577 273.598 124.012 229.584ZM261.701 201.137C255.277 206.615 218.697 212.573 240.606 226.364C244.298 228.671 258.537 218.532 247.75 233.187C232.121 254.426 198.178 240.251 198.178 226.028V174.709C199.137 173.556 223.204 184.656 226.32 172.691C229.34 161.111 209.396 157.843 203.547 149.867C191.274 133.097 193.528 54.7254 226.368 81.0094C240.702 92.4936 227.279 103.209 233.559 118.057C245.88 119.979 249.667 104.026 257.865 116.663C270.426 136.076 254.893 140.112 254.605 141.506C251.537 157.026 290.849 176.199 261.653 201.089L261.701 201.137Z" fill="#485AA3"/>
</svg>
