<svg width="376" height="321" viewBox="0 0 376 321" fill="none" xmlns="http://www.w3.org/2000/svg">
<rect width="376" height="321" fill="white"/>
<path d="M275.528 124.934C271.652 104.651 246.669 109.309 245.308 108.031C243.453 106.3 246.463 80.2446 224.819 75.3798C213.44 72.865 171.266 73.3597 158.568 74.7614C113.466 79.8735 135.522 126.913 129.668 132.479C128.39 133.674 104.602 130.706 99.9024 146.784C97.5113 154.988 97.9648 205.45 99.2016 216.086C101.057 232.412 109.673 237.07 125.092 238.802C153.291 241.976 215.007 241.44 243.742 238.926C260.191 237.483 273.466 234.432 275.61 216.086C277.424 200.338 278.166 139.116 275.486 124.975L275.528 124.934ZM129.668 220.539C123.979 220.703 116.97 221.899 114.909 215.55C112.765 208.913 113.548 156.761 117.259 151.938C120.474 147.774 124.762 147.114 129.668 147.65V220.539ZM196.579 220.539H178.315C175.801 189.454 199.794 189.907 196.579 220.539ZM226.963 220.539H211.75C220.49 167.191 154.445 167.15 163.144 220.539H147.931V97.5597C147.931 97.2299 152.178 93.0248 152.508 93.0248H222.428C222.758 93.0248 227.004 97.2711 227.004 97.5597V220.539H226.963ZM259.944 215.55C257.883 221.899 250.833 220.703 245.185 220.539V123.368C254.626 124.027 259.408 127.449 260.562 136.849C261.717 146.372 261.964 209.366 259.944 215.55Z" fill="#485AA3"/>
<path d="M211.337 151.114C224.076 171.728 164.916 168.141 163.02 160.926C157.372 139.653 209.4 147.981 211.337 151.114Z" fill="#5262A8"/>
<path d="M168.174 117.803C175.595 115.494 216.368 113.145 211.709 127.904C209.689 134.335 174.234 133.882 168.174 131.985C161 129.759 161 120.029 168.174 117.803Z" fill="#485AA4"/>
</svg>
