<svg width="376" height="321" viewBox="0 0 376 321" fill="none" xmlns="http://www.w3.org/2000/svg">
<rect width="376" height="321" fill="white"/>
<g clip-path="url(#clip0_187_15)">
<path d="M217.032 212.358C216.877 212.604 211.786 214.324 211.508 214.293C200.985 213.126 212.279 187.196 196.202 180.375C187.654 176.75 145.07 176.781 138.898 183.325C129.61 193.156 137.694 217.704 125.32 214.754C117.359 212.849 121.309 181.727 129.61 174.108C143.372 161.42 196.387 160.682 209.379 174.047C216.106 180.99 221.167 205.783 217.032 212.358Z" fill="#495AA4"/>
<path d="M205.953 142.556C206.879 141.235 221.228 139.115 223.666 127.225C227.678 107.808 196.356 104.029 208.052 96.0108C231.381 80.0657 253.198 149.438 212.835 152.817C207.805 153.247 203.978 145.382 205.953 142.586V142.556Z" fill="#4A5BA4"/>
<path d="M253.445 212.358C251.84 214.908 245.329 214.6 243.477 210.33C239.651 201.605 246.1 191.773 236.688 183.14C233.664 180.375 216.723 175.03 226.32 168.424C237.151 160.959 251.963 178.655 253.537 189.008C254.062 192.357 254.309 211.006 253.475 212.358H253.445Z" fill="#4A5BA4"/>
<path d="M166.732 93.1536C127.172 96.5331 132.387 159.883 175.002 153.647C210.49 148.455 205.953 89.7741 166.732 93.1536ZM172.348 142.095C152.105 145.72 143.249 112.294 161.98 106.702C191.481 97.9464 195.307 137.947 172.348 142.095Z" fill="#485AA4"/>
</g>
<defs>
<clipPath id="clip0_187_15">
<rect width="133" height="122" fill="white" transform="translate(121 93)"/>
</clipPath>
</defs>
</svg>
